<svg width="14" height="14" viewBox="0 0 14 14" fill="none" xmlns="http://www.w3.org/2000/svg">
<path d="M11.874 0.250977C12.9093 0.25124 13.749 1.09061 13.749 2.12598V9.62207C13.7488 10.6573 12.9092 11.4968 11.874 11.4971H11.4912V11.875C11.4908 12.91 10.6512 13.7497 9.61621 13.75H2.12695C1.0917 13.75 0.251438 12.9101 0.250977 11.875V4.38574C0.250977 3.35021 1.09142 2.51074 2.12695 2.51074H2.50488V2.12598C2.50488 1.09044 3.34435 0.250977 4.37988 0.250977H11.874ZM2.12695 4.01074C1.91985 4.01074 1.75195 4.17864 1.75195 4.38574V11.875C1.75241 12.0817 1.92013 12.25 2.12695 12.25H9.61621C9.82281 12.2497 9.99075 12.0816 9.99121 11.875V11.4971H4.37988C3.34447 11.4971 2.50508 10.6574 2.50488 9.62207V4.01074H2.12695ZM4.37988 1.75098C4.17278 1.75098 4.00488 1.91887 4.00488 2.12598V9.62207C4.00508 9.82901 4.1729 9.99707 4.37988 9.99707H11.874C12.0808 9.99681 12.2488 9.82885 12.249 9.62207V2.12598C12.249 1.91903 12.0809 1.75124 11.874 1.75098H4.37988Z" fill="#344054"/>
</svg>
