<svg width="18" height="18" viewBox="0 0 18 18" fill="none" xmlns="http://www.w3.org/2000/svg">
    <path fill-rule="evenodd" clip-rule="evenodd" d="M9.00156 0.25C8.78555 0.25 8.59088 0.341313 8.45403 0.487443L3.84444 5.0941C3.55146 5.3869 3.55131 5.86177 3.84411 6.15476C4.1369 6.44775 4.61178 6.4479 4.90477 6.1551L8.25156 2.81043V13C8.25156 13.4142 8.58734 13.75 9.00156 13.75C9.41577 13.75 9.75156 13.4142 9.75156 13V2.81455L13.0945 6.15511C13.3875 6.4479 13.8623 6.44774 14.1551 6.15474C14.4479 5.86175 14.4477 5.38687 14.1547 5.09408L9.57982 0.522357C9.44225 0.356001 9.23428 0.25 9.00156 0.25ZM1.74957 13C1.74957 12.5858 1.41379 12.25 0.999573 12.25C0.585359 12.25 0.249573 12.5858 0.249573 13V15.5C0.249573 16.7426 1.25693 17.75 2.49957 17.75H15.5004C16.7431 17.75 17.7504 16.7426 17.7504 15.5V13C17.7504 12.5858 17.4147 12.25 17.0004 12.25C16.5862 12.25 16.2504 12.5858 16.2504 13V15.5C16.2504 15.9142 15.9147 16.25 15.5004 16.25H2.49957C2.08536 16.25 1.74957 15.9142 1.74957 15.5V13Z" fill="#344054"/>
</svg>