<svg width="14" height="14" viewBox="0 0 14 14" fill="none" xmlns="http://www.w3.org/2000/svg">
<path d="M8.90922 0.781843C9.78788 -0.0965049 11.2123 -0.0965988 12.0909 0.781843L12.7539 1.44493C13.6325 2.32352 13.6323 3.74788 12.7539 4.62657L5.41996 11.9615C5.11164 12.2698 4.71958 12.4809 4.29301 12.5709L1.20024 13.2232C0.95224 13.2754 0.694881 13.1993 0.515667 13.0201C0.336473 12.8409 0.260313 12.5836 0.312542 12.3356L0.964886 9.24278C1.05491 8.8162 1.267 8.42415 1.57524 8.11583L8.90922 0.781843ZM2.63578 9.17735C2.53319 9.28005 2.46267 9.41032 2.43266 9.55235L2.01762 11.5182L3.98344 11.1031C4.12552 11.0731 4.25669 11.0026 4.35942 10.9L9.98246 5.27598L8.25883 3.55235L2.63578 9.17735ZM11.0303 1.84239C10.7375 1.54973 10.2626 1.54983 9.96977 1.84239L9.31938 2.4918L11.043 4.21544L11.6934 3.56602C11.986 3.27312 11.9862 2.79828 11.6934 2.50548L11.0303 1.84239Z" fill="#344054"/>
</svg>
