<svg width="20" height="20" viewBox="0 0 20 20" fill="none" xmlns="http://www.w3.org/2000/svg">
    <path fill-rule="evenodd" clip-rule="evenodd" d="M16.5911 3.03216C15.7124 2.15348 14.2878 2.15348 13.4091 3.03216L5.1074 11.3338C4.79899 11.6422 4.58687 12.0336 4.49684 12.4604L3.76177 15.9451C3.70943 16.1932 3.786 16.4509 3.96529 16.6302C4.14458 16.8095 4.40232 16.8861 4.65042 16.8337L8.13507 16.0986C8.56184 16.0086 8.95324 15.7965 9.26165 15.4881L17.5633 7.18642C18.442 6.30774 18.442 4.88312 17.5633 4.00444L16.5911 3.03216ZM14.4697 4.09282C14.7626 3.79993 15.2375 3.79993 15.5304 4.09282L16.5027 5.0651C16.7956 5.35799 16.7956 5.83286 16.5027 6.12576L15.6043 7.02413L13.5714 4.9912L14.4697 4.09282ZM12.5107 6.05186L6.16806 12.3945C6.06526 12.4973 5.99455 12.6278 5.96454 12.77L5.46704 15.1284L7.82547 14.6309C7.96772 14.6009 8.09819 14.5302 8.20099 14.4274L14.5436 8.08479L12.5107 6.05186Z" fill="#344054"/>
</svg>
