<svg width="20" height="20" viewBox="0 0 20 20" fill="none" xmlns="http://www.w3.org/2000/svg">
    <path fill-rule="evenodd" clip-rule="evenodd" d="M12.0826 4.08337C11.0769 4.08337 10.2617 4.89859 10.2617 5.90421C10.2617 6.90983 11.0769 7.72504 12.0826 7.72504C13.0882 7.72504 13.9034 6.90982 13.9034 5.90421C13.9034 4.89859 13.0882 4.08337 12.0826 4.08337ZM2.29004 6.65397H8.84671C9.18662 8.12691 10.5063 9.22504 12.0826 9.22504C13.6588 9.22504 14.9785 8.12691 15.3184 6.65397H17.7067C18.1209 6.65397 18.4567 6.31819 18.4567 5.90397C18.4567 5.48976 18.1209 5.15397 17.7067 5.15397H15.3183C14.9782 3.68127 13.6586 2.58337 12.0826 2.58337C10.5065 2.58337 9.18691 3.68127 8.84682 5.15397H2.29004C1.87583 5.15397 1.54004 5.48976 1.54004 5.90397C1.54004 6.31819 1.87583 6.65397 2.29004 6.65397ZM4.6816 13.3461H2.29085C1.87664 13.3461 1.54085 13.6819 1.54085 14.0961C1.54085 14.5103 1.87664 14.8461 2.29085 14.8461H4.68172C5.02181 16.3188 6.34142 17.4167 7.91745 17.4167C9.49348 17.4167 10.8131 16.3188 11.1532 14.8461H17.7075C18.1217 14.8461 18.4575 14.5103 18.4575 14.0961C18.4575 13.6819 18.1217 13.3461 17.7075 13.3461H11.1533C10.8134 11.8732 9.49366 10.775 7.91745 10.775C6.34124 10.775 5.02151 11.8732 4.6816 13.3461ZM9.73828 14.0959C9.73828 13.0902 8.92307 12.275 7.91745 12.275C6.91183 12.275 6.09662 13.0902 6.09662 14.0959C6.09662 15.1015 6.91183 15.9167 7.91745 15.9167C8.92307 15.9167 9.73828 15.1015 9.73828 14.0959Z" fill="#344054"/>
</svg>
