<svg width="18" height="16" viewBox="0 0 18 16" fill="none" xmlns="http://www.w3.org/2000/svg">
    <path fill-rule="evenodd" clip-rule="evenodd" d="M11.0826 2.08337C10.0769 2.08337 9.26172 2.89859 9.26172 3.90421C9.26172 4.90983 10.0769 5.72504 11.0826 5.72504C12.0882 5.72504 12.9034 4.90982 12.9034 3.90421C12.9034 2.89859 12.0882 2.08337 11.0826 2.08337ZM1.29004 4.65397H7.84671C8.18662 6.12691 9.50635 7.22504 11.0826 7.22504C12.6588 7.22504 13.9785 6.12691 14.3184 4.65397H16.7067C17.1209 4.65397 17.4567 4.31819 17.4567 3.90397C17.4567 3.48976 17.1209 3.15397 16.7067 3.15397H14.3183C13.9782 1.68127 12.6586 0.583374 11.0826 0.583374C9.50651 0.583374 8.18691 1.68127 7.84682 3.15397H1.29004C0.875825 3.15397 0.540039 3.48976 0.540039 3.90397C0.540039 4.31819 0.875825 4.65397 1.29004 4.65397ZM3.6816 11.3461H1.29085C0.876639 11.3461 0.540854 11.6819 0.540854 12.0961C0.540854 12.5103 0.876639 12.8461 1.29085 12.8461H3.68172C4.02181 14.3188 5.34142 15.4167 6.91745 15.4167C8.49348 15.4167 9.81309 14.3188 10.1532 12.8461H16.7075C17.1217 12.8461 17.4575 12.5103 17.4575 12.0961C17.4575 11.6819 17.1217 11.3461 16.7075 11.3461H10.1533C9.81338 9.87317 8.49366 8.77503 6.91745 8.77503C5.34124 8.77503 4.02151 9.87317 3.6816 11.3461ZM8.73828 12.0959C8.73828 11.0902 7.92307 10.275 6.91745 10.275C5.91183 10.275 5.09662 11.0902 5.09662 12.0959C5.09662 13.1015 5.91183 13.9167 6.91745 13.9167C7.92307 13.9167 8.73828 13.1015 8.73828 12.0959Z" fill="#344054"/>
</svg>
