<svg width="14" height="14" viewBox="0 0 14 14" fill="none" xmlns="http://www.w3.org/2000/svg">
<path d="M8.90922 0.781721C9.78788 -0.096627 11.2123 -0.0967209 12.0909 0.781721L12.7539 1.44481C13.6325 2.32339 13.6323 3.74776 12.7539 4.62645L5.41996 11.9614C5.11164 12.2696 4.71958 12.4808 4.29301 12.5708L1.20024 13.2231C0.95224 13.2753 0.694881 13.1992 0.515667 13.02C0.336473 12.8408 0.260313 12.5834 0.312542 12.3354L0.964886 9.24266C1.05491 8.81608 1.267 8.42403 1.57524 8.11571L8.90922 0.781721ZM2.63578 9.17723C2.53319 9.27993 2.46267 9.4102 2.43266 9.55223L2.01762 11.518L3.98344 11.103C4.12552 11.073 4.25669 11.0025 4.35942 10.8999L9.98246 5.27586L8.25883 3.55223L2.63578 9.17723ZM11.0303 1.84227C10.7375 1.54961 10.2626 1.54971 9.96977 1.84227L9.31938 2.49168L11.043 4.21531L11.6934 3.5659C11.986 3.27299 11.9862 2.79815 11.6934 2.50535L11.0303 1.84227Z" fill="#344054"/>
</svg>
