<svg width="20" height="21" viewBox="0 0 20 21" fill="none" xmlns="http://www.w3.org/2000/svg">
    <path fill-rule="evenodd" clip-rule="evenodd" d="M18.3662 1.11216C18.6591 0.8193 19.134 0.819349 19.4269 1.11227C19.7197 1.4052 19.7197 1.88007 19.4268 2.17293L15.0307 6.56803C14.7378 6.8609 14.2629 6.86085 13.9701 6.56792C13.6772 6.275 13.6773 5.80013 13.9702 5.50726L18.3662 1.11216ZM14.6591 2.696C14.952 2.40308 14.9519 1.9282 14.659 1.63534C14.3661 1.34248 13.8912 1.34253 13.5984 1.63545L12.0987 3.13545C11.8058 3.42837 11.8059 3.90325 12.0988 4.19611C12.3917 4.48897 12.8666 4.48892 13.1594 4.196L14.6591 2.696ZM9.83424 3.45488C9.7079 3.19888 9.44717 3.0368 9.16169 3.0368C8.87621 3.0368 8.61548 3.19888 8.48914 3.45488L6.06428 8.36817L0.642143 9.15605C0.359628 9.19711 0.124918 9.39499 0.0366989 9.6665C-0.0515198 9.93801 0.022053 10.2361 0.226483 10.4353L4.14998 14.2598L3.22377 19.66C3.17551 19.9414 3.29117 20.2258 3.52213 20.3936C3.75309 20.5614 4.05929 20.5835 4.31198 20.4506L9.16169 17.901L14.0114 20.4506C14.2641 20.5835 14.5703 20.5614 14.8012 20.3936C15.0322 20.2258 15.1479 19.9414 15.0996 19.66L14.1734 14.2598L18.0969 10.4353C18.3013 10.2361 18.3749 9.93801 18.2867 9.6665C18.1985 9.39499 17.9637 9.19711 17.6812 9.15605L12.2591 8.36817L9.83424 3.45488ZM7.23488 9.3856L9.16169 5.48147L11.0885 9.3856C11.1977 9.60696 11.4089 9.76039 11.6532 9.79588L15.9617 10.4219L12.844 13.4609C12.6673 13.6332 12.5866 13.8814 12.6283 14.1247L13.3643 18.4158L9.51069 16.3898C9.2922 16.275 9.03117 16.275 8.81268 16.3898L4.95907 18.4158L5.69505 14.1247C5.73677 13.8814 5.65611 13.6332 5.47935 13.4609L2.36171 10.4219L6.67018 9.79588C6.91446 9.76039 7.12564 9.60696 7.23488 9.3856ZM19.6514 5.12825C19.9443 5.42111 19.9443 5.89598 19.6515 6.18891L18.1518 7.68891C17.8589 7.98183 17.384 7.98188 17.0911 7.68901C16.7982 7.39615 16.7981 6.92128 17.091 6.62836L18.5907 5.12836C18.8836 4.83543 19.3584 4.83538 19.6514 5.12825Z" fill="#344054"/>
</svg>
