<svg width="20" height="20" viewBox="0 0 20 20" fill="none" xmlns="http://www.w3.org/2000/svg">
    <path d="M3.54484 9.72539L6.80108 8.056C6.94003 7.98476 7.07095 7.89524 7.16635 7.77162C7.57727 7.23912 7.66718 6.51628 7.38361 5.89244L5.76234 2.32564C5.23239 1.15974 3.70106 0.882058 2.79547 1.78764L1.72728 2.85577C1.36121 3.22182 1.18187 3.73847 1.27371 4.24794C1.90115 7.72846 3.55999 11.0595 6.25021 13.7497C8.94045 16.44 12.2715 18.0988 15.752 18.7262C16.2615 18.8181 16.7781 18.6388 17.1442 18.2727L18.2123 17.2045C19.1179 16.2989 18.8403 14.7676 17.6744 14.2377L14.1076 12.6164C13.4837 12.3328 12.7609 12.4227 12.2284 12.8336C12.1048 12.929 12.0152 13.06 11.944 13.1989L10.2746 16.4552" stroke="#344054" stroke-width="1.5"/>
</svg>
