<svg width="16" height="18" viewBox="0 0 16 18" fill="none" xmlns="http://www.w3.org/2000/svg">
<path d="M9.4375 0.553711C10.5722 0.668832 11.458 1.62694 11.458 2.79199V3.04199H14.666L14.7422 3.0459C15.1204 3.0843 15.416 3.40366 15.416 3.79199C15.4158 4.18018 15.1203 4.4997 14.7422 4.53809L14.666 4.54199H14.375V15.209C14.3746 16.4513 13.3674 17.459 12.125 17.459H3.875C2.63258 17.459 1.62535 16.4513 1.625 15.209V4.54199H1.33301C0.919052 4.54182 0.583184 4.20595 0.583008 3.79199C0.583008 3.37789 0.918944 3.04217 1.33301 3.04199H4.54102V2.79199C4.54102 1.54943 5.54849 0.542124 6.79102 0.541992H9.20801L9.4375 0.553711ZM3.125 15.209C3.12535 15.6229 3.461 15.959 3.875 15.959H12.125C12.539 15.959 12.8746 15.6229 12.875 15.209V4.54199H3.125V15.209ZM6.33301 7C6.74722 7 7.08301 7.33579 7.08301 7.75V12.75C7.08301 13.1642 6.74722 13.5 6.33301 13.5C5.91894 13.4998 5.58301 13.1641 5.58301 12.75V7.75C5.58301 7.33589 5.91894 7.00018 6.33301 7ZM9.66699 7C10.0811 7.00018 10.417 7.33589 10.417 7.75V12.75C10.417 13.1641 10.0811 13.4998 9.66699 13.5C9.25278 13.5 8.91699 13.1642 8.91699 12.75V7.75C8.91699 7.33579 9.25278 7 9.66699 7ZM6.79102 2.04199C6.37691 2.04212 6.04102 2.37786 6.04102 2.79199V3.04199H9.95801V2.79199C9.95801 2.4036 9.66246 2.08422 9.28418 2.0459L9.20801 2.04199H6.79102Z" fill="#FF3B30"/>
</svg>
